solid OpenSCAD_Model
  facet normal -1 0 0
    outer loop
      vertex -3 3 -1.5
      vertex -3 7 1.5
      vertex -3 7 -1.5
    endloop
  endfacet
  facet normal -1 -0 0
    outer loop
      vertex -3 7 1.5
      vertex -3 3 -1.5
      vertex -3 3 1.5
    endloop
  endfacet
  facet normal -0 0 1
    outer loop
      vertex -3 7 1.5
      vertex 3 3 1.5
      vertex 3 7 1.5
    endloop
  endfacet
  facet normal 0 0 1
    outer loop
      vertex 3 3 1.5
      vertex -3 7 1.5
      vertex -3 3 1.5
    endloop
  endfacet
  facet normal 1 -0 0
    outer loop
      vertex 3 3 1.5
      vertex 3 7 -1.5
      vertex 3 7 1.5
    endloop
  endfacet
  facet normal 1 0 0
    outer loop
      vertex 3 7 -1.5
      vertex 3 3 1.5
      vertex 3 3 -1.5
    endloop
  endfacet
  facet normal 0 1 0
    outer loop
      vertex 3 7 1.5
      vertex 1.5 7 0.5
      vertex -3 7 1.5
    endloop
  endfacet
  facet normal 0 1 -0
    outer loop
      vertex 3 7 -1.5
      vertex 1.5 7 0.5
      vertex 3 7 1.5
    endloop
  endfacet
  facet normal 0 1 0
    outer loop
      vertex 1.5 7 -1.3
      vertex 3 7 -1.5
      vertex -1.5 7 -1.3
    endloop
  endfacet
  facet normal 0 1 0
    outer loop
      vertex 1.5 7 0.5
      vertex 3 7 -1.5
      vertex 1.5 7 -1.3
    endloop
  endfacet
  facet normal 0 1 -0
    outer loop
      vertex -1.5 7 0.5
      vertex -3 7 1.5
      vertex 1.5 7 0.5
    endloop
  endfacet
  facet normal 0 1 0
    outer loop
      vertex -3 7 -1.5
      vertex -1.5 7 0.5
      vertex -1.5 7 -1.3
    endloop
  endfacet
  facet normal 0 1 0
    outer loop
      vertex -1.5 7 0.5
      vertex -3 7 -1.5
      vertex -3 7 1.5
    endloop
  endfacet
  facet normal 0 1 0
    outer loop
      vertex -3 7 -1.5
      vertex -1.5 7 -1.3
      vertex 3 7 -1.5
    endloop
  endfacet
  facet normal 0 0 -1
    outer loop
      vertex -3 3 -1.5
      vertex 3 7 -1.5
      vertex 3 3 -1.5
    endloop
  endfacet
  facet normal -0 0 -1
    outer loop
      vertex 3 7 -1.5
      vertex -3 3 -1.5
      vertex -3 7 -1.5
    endloop
  endfacet
  facet normal 0 -1 0
    outer loop
      vertex -3 3 1.5
      vertex -1.5 3 0.5
      vertex 3 3 1.5
    endloop
  endfacet
  facet normal 0 -1 0
    outer loop
      vertex -3 3 -1.5
      vertex -1.5 3 0.5
      vertex -3 3 1.5
    endloop
  endfacet
  facet normal 0 -1 -0
    outer loop
      vertex -1.5 3 -1.3
      vertex -3 3 -1.5
      vertex 1.5 3 -1.3
    endloop
  endfacet
  facet normal 0 -1 -0
    outer loop
      vertex -1.5 3 0.5
      vertex -3 3 -1.5
      vertex -1.5 3 -1.3
    endloop
  endfacet
  facet normal 0 -1 0
    outer loop
      vertex 1.5 3 0.5
      vertex 3 3 1.5
      vertex -1.5 3 0.5
    endloop
  endfacet
  facet normal 0 -1 0
    outer loop
      vertex 3 3 -1.5
      vertex 1.5 3 0.5
      vertex 1.5 3 -1.3
    endloop
  endfacet
  facet normal 0 -1 0
    outer loop
      vertex 1.5 3 0.5
      vertex 3 3 -1.5
      vertex 3 3 1.5
    endloop
  endfacet
  facet normal 0 -1 0
    outer loop
      vertex 3 3 -1.5
      vertex 1.5 3 -1.3
      vertex -3 3 -1.5
    endloop
  endfacet
  facet normal 1 -0 0
    outer loop
      vertex -1.5 3 0.5
      vertex -1.5 7 -1.3
      vertex -1.5 7 0.5
    endloop
  endfacet
  facet normal 1 0 0
    outer loop
      vertex -1.5 7 -1.3
      vertex -1.5 3 0.5
      vertex -1.5 3 -1.3
    endloop
  endfacet
  facet normal 0 0 -1
    outer loop
      vertex -1.5 3 0.5
      vertex 1.5 7 0.5
      vertex 1.5 3 0.5
    endloop
  endfacet
  facet normal -0 0 -1
    outer loop
      vertex 1.5 7 0.5
      vertex -1.5 3 0.5
      vertex -1.5 7 0.5
    endloop
  endfacet
  facet normal -1 0 0
    outer loop
      vertex 1.5 3 -1.3
      vertex 1.5 7 0.5
      vertex 1.5 7 -1.3
    endloop
  endfacet
  facet normal -1 -0 0
    outer loop
      vertex 1.5 7 0.5
      vertex 1.5 3 -1.3
      vertex 1.5 3 0.5
    endloop
  endfacet
  facet normal -0 0 1
    outer loop
      vertex -1.5 7 -1.3
      vertex 1.5 3 -1.3
      vertex 1.5 7 -1.3
    endloop
  endfacet
  facet normal 0 0 1
    outer loop
      vertex 1.5 3 -1.3
      vertex -1.5 7 -1.3
      vertex -1.5 3 -1.3
    endloop
  endfacet
  facet normal -1 0 0
    outer loop
      vertex -4 8 -1.5
      vertex -4 12 1.5
      vertex -4 12 -1.5
    endloop
  endfacet
  facet normal -1 -0 0
    outer loop
      vertex -4 12 1.5
      vertex -4 8 -1.5
      vertex -4 8 1.5
    endloop
  endfacet
  facet normal -0 0 1
    outer loop
      vertex -4 12 1.5
      vertex 4 8 1.5
      vertex 4 12 1.5
    endloop
  endfacet
  facet normal 0 0 1
    outer loop
      vertex 4 8 1.5
      vertex -4 12 1.5
      vertex -4 8 1.5
    endloop
  endfacet
  facet normal 1 -0 0
    outer loop
      vertex 4 8 1.5
      vertex 4 12 -1.5
      vertex 4 12 1.5
    endloop
  endfacet
  facet normal 1 0 0
    outer loop
      vertex 4 12 -1.5
      vertex 4 8 1.5
      vertex 4 8 -1.5
    endloop
  endfacet
  facet normal 0 0 -1
    outer loop
      vertex -4 8 -1.5
      vertex 4 12 -1.5
      vertex 4 8 -1.5
    endloop
  endfacet
  facet normal -0 0 -1
    outer loop
      vertex 4 12 -1.5
      vertex -4 8 -1.5
      vertex -4 12 -1.5
    endloop
  endfacet
  facet normal 0 -1 0
    outer loop
      vertex -4 8 1.5
      vertex -2.5 8 0.5
      vertex 4 8 1.5
    endloop
  endfacet
  facet normal 0 -1 0
    outer loop
      vertex -4 8 -1.5
      vertex -2.5 8 0.5
      vertex -4 8 1.5
    endloop
  endfacet
  facet normal 0 -1 -0
    outer loop
      vertex -2.5 8 -1.3
      vertex -4 8 -1.5
      vertex 2.5 8 -1.3
    endloop
  endfacet
  facet normal 0 -1 -0
    outer loop
      vertex -2.5 8 0.5
      vertex -4 8 -1.5
      vertex -2.5 8 -1.3
    endloop
  endfacet
  facet normal 0 -1 0
    outer loop
      vertex 2.5 8 0.5
      vertex 4 8 1.5
      vertex -2.5 8 0.5
    endloop
  endfacet
  facet normal 0 -1 0
    outer loop
      vertex 4 8 -1.5
      vertex 2.5 8 0.5
      vertex 2.5 8 -1.3
    endloop
  endfacet
  facet normal 0 -1 0
    outer loop
      vertex 2.5 8 0.5
      vertex 4 8 -1.5
      vertex 4 8 1.5
    endloop
  endfacet
  facet normal 0 -1 0
    outer loop
      vertex 4 8 -1.5
      vertex 2.5 8 -1.3
      vertex -4 8 -1.5
    endloop
  endfacet
  facet normal 0 1 0
    outer loop
      vertex 4 12 1.5
      vertex 2.5 12 0.5
      vertex -4 12 1.5
    endloop
  endfacet
  facet normal 0 1 -0
    outer loop
      vertex 4 12 -1.5
      vertex 2.5 12 0.5
      vertex 4 12 1.5
    endloop
  endfacet
  facet normal 0 1 0
    outer loop
      vertex 2.5 12 -1.3
      vertex 4 12 -1.5
      vertex -2.5 12 -1.3
    endloop
  endfacet
  facet normal 0 1 0
    outer loop
      vertex 2.5 12 0.5
      vertex 4 12 -1.5
      vertex 2.5 12 -1.3
    endloop
  endfacet
  facet normal 0 1 -0
    outer loop
      vertex -2.5 12 0.5
      vertex -4 12 1.5
      vertex 2.5 12 0.5
    endloop
  endfacet
  facet normal 0 1 0
    outer loop
      vertex -4 12 -1.5
      vertex -2.5 12 0.5
      vertex -2.5 12 -1.3
    endloop
  endfacet
  facet normal 0 1 0
    outer loop
      vertex -2.5 12 0.5
      vertex -4 12 -1.5
      vertex -4 12 1.5
    endloop
  endfacet
  facet normal 0 1 0
    outer loop
      vertex -4 12 -1.5
      vertex -2.5 12 -1.3
      vertex 4 12 -1.5
    endloop
  endfacet
  facet normal 1 -0 0
    outer loop
      vertex -2.5 8 0.5
      vertex -2.5 12 -1.3
      vertex -2.5 12 0.5
    endloop
  endfacet
  facet normal 1 0 0
    outer loop
      vertex -2.5 12 -1.3
      vertex -2.5 8 0.5
      vertex -2.5 8 -1.3
    endloop
  endfacet
  facet normal 0 0 -1
    outer loop
      vertex -2.5 8 0.5
      vertex 2.5 12 0.5
      vertex 2.5 8 0.5
    endloop
  endfacet
  facet normal -0 0 -1
    outer loop
      vertex 2.5 12 0.5
      vertex -2.5 8 0.5
      vertex -2.5 12 0.5
    endloop
  endfacet
  facet normal -1 0 0
    outer loop
      vertex 2.5 8 -1.3
      vertex 2.5 12 0.5
      vertex 2.5 12 -1.3
    endloop
  endfacet
  facet normal -1 -0 0
    outer loop
      vertex 2.5 12 0.5
      vertex 2.5 8 -1.3
      vertex 2.5 8 0.5
    endloop
  endfacet
  facet normal -0 0 1
    outer loop
      vertex -2.5 12 -1.3
      vertex 2.5 8 -1.3
      vertex 2.5 12 -1.3
    endloop
  endfacet
  facet normal 0 0 1
    outer loop
      vertex 2.5 8 -1.3
      vertex -2.5 12 -1.3
      vertex -2.5 8 -1.3
    endloop
  endfacet
  facet normal -1 0 0
    outer loop
      vertex -5 13 -1.5
      vertex -5 17 1.5
      vertex -5 17 -1.5
    endloop
  endfacet
  facet normal -1 -0 0
    outer loop
      vertex -5 17 1.5
      vertex -5 13 -1.5
      vertex -5 13 1.5
    endloop
  endfacet
  facet normal -0 0 1
    outer loop
      vertex -5 17 1.5
      vertex 5 13 1.5
      vertex 5 17 1.5
    endloop
  endfacet
  facet normal 0 0 1
    outer loop
      vertex 5 13 1.5
      vertex -5 17 1.5
      vertex -5 13 1.5
    endloop
  endfacet
  facet normal 1 -0 0
    outer loop
      vertex 5 13 1.5
      vertex 5 17 -1.5
      vertex 5 17 1.5
    endloop
  endfacet
  facet normal 1 0 0
    outer loop
      vertex 5 17 -1.5
      vertex 5 13 1.5
      vertex 5 13 -1.5
    endloop
  endfacet
  facet normal 0 1 0
    outer loop
      vertex 5 17 1.5
      vertex 3.5 17 0.5
      vertex -5 17 1.5
    endloop
  endfacet
  facet normal 0 1 -0
    outer loop
      vertex 5 17 -1.5
      vertex 3.5 17 0.5
      vertex 5 17 1.5
    endloop
  endfacet
  facet normal 0 1 0
    outer loop
      vertex 3.5 17 -1.3
      vertex 5 17 -1.5
      vertex -3.5 17 -1.3
    endloop
  endfacet
  facet normal 0 1 0
    outer loop
      vertex 3.5 17 0.5
      vertex 5 17 -1.5
      vertex 3.5 17 -1.3
    endloop
  endfacet
  facet normal 0 1 -0
    outer loop
      vertex -3.5 17 0.5
      vertex -5 17 1.5
      vertex 3.5 17 0.5
    endloop
  endfacet
  facet normal 0 1 0
    outer loop
      vertex -5 17 -1.5
      vertex -3.5 17 0.5
      vertex -3.5 17 -1.3
    endloop
  endfacet
  facet normal 0 1 0
    outer loop
      vertex -3.5 17 0.5
      vertex -5 17 -1.5
      vertex -5 17 1.5
    endloop
  endfacet
  facet normal 0 1 0
    outer loop
      vertex -5 17 -1.5
      vertex -3.5 17 -1.3
      vertex 5 17 -1.5
    endloop
  endfacet
  facet normal 0 0 -1
    outer loop
      vertex -5 13 -1.5
      vertex 5 17 -1.5
      vertex 5 13 -1.5
    endloop
  endfacet
  facet normal -0 0 -1
    outer loop
      vertex 5 17 -1.5
      vertex -5 13 -1.5
      vertex -5 17 -1.5
    endloop
  endfacet
  facet normal 0 -1 0
    outer loop
      vertex -5 13 1.5
      vertex -3.5 13 0.5
      vertex 5 13 1.5
    endloop
  endfacet
  facet normal 0 -1 0
    outer loop
      vertex -5 13 -1.5
      vertex -3.5 13 0.5
      vertex -5 13 1.5
    endloop
  endfacet
  facet normal 0 -1 -0
    outer loop
      vertex -3.5 13 -1.3
      vertex -5 13 -1.5
      vertex 3.5 13 -1.3
    endloop
  endfacet
  facet normal 0 -1 -0
    outer loop
      vertex -3.5 13 0.5
      vertex -5 13 -1.5
      vertex -3.5 13 -1.3
    endloop
  endfacet
  facet normal 0 -1 0
    outer loop
      vertex 3.5 13 0.5
      vertex 5 13 1.5
      vertex -3.5 13 0.5
    endloop
  endfacet
  facet normal 0 -1 0
    outer loop
      vertex 5 13 -1.5
      vertex 3.5 13 0.5
      vertex 3.5 13 -1.3
    endloop
  endfacet
  facet normal 0 -1 0
    outer loop
      vertex 3.5 13 0.5
      vertex 5 13 -1.5
      vertex 5 13 1.5
    endloop
  endfacet
  facet normal 0 -1 0
    outer loop
      vertex 5 13 -1.5
      vertex 3.5 13 -1.3
      vertex -5 13 -1.5
    endloop
  endfacet
  facet normal 1 -0 0
    outer loop
      vertex -3.5 13 0.5
      vertex -3.5 17 -1.3
      vertex -3.5 17 0.5
    endloop
  endfacet
  facet normal 1 0 0
    outer loop
      vertex -3.5 17 -1.3
      vertex -3.5 13 0.5
      vertex -3.5 13 -1.3
    endloop
  endfacet
  facet normal 0 0 -1
    outer loop
      vertex -3.5 13 0.5
      vertex 3.5 17 0.5
      vertex 3.5 13 0.5
    endloop
  endfacet
  facet normal -0 0 -1
    outer loop
      vertex 3.5 17 0.5
      vertex -3.5 13 0.5
      vertex -3.5 17 0.5
    endloop
  endfacet
  facet normal -1 0 0
    outer loop
      vertex 3.5 13 -1.3
      vertex 3.5 17 0.5
      vertex 3.5 17 -1.3
    endloop
  endfacet
  facet normal -1 -0 0
    outer loop
      vertex 3.5 17 0.5
      vertex 3.5 13 -1.3
      vertex 3.5 13 0.5
    endloop
  endfacet
  facet normal -0 0 1
    outer loop
      vertex -3.5 17 -1.3
      vertex 3.5 13 -1.3
      vertex 3.5 17 -1.3
    endloop
  endfacet
  facet normal 0 0 1
    outer loop
      vertex 3.5 13 -1.3
      vertex -3.5 17 -1.3
      vertex -3.5 13 -1.3
    endloop
  endfacet
  facet normal -1 0 0
    outer loop
      vertex -6 18 -1.5
      vertex -6 22 1.5
      vertex -6 22 -1.5
    endloop
  endfacet
  facet normal -1 -0 0
    outer loop
      vertex -6 22 1.5
      vertex -6 18 -1.5
      vertex -6 18 1.5
    endloop
  endfacet
  facet normal -0 0 1
    outer loop
      vertex -6 22 1.5
      vertex 6 18 1.5
      vertex 6 22 1.5
    endloop
  endfacet
  facet normal 0 0 1
    outer loop
      vertex 6 18 1.5
      vertex -6 22 1.5
      vertex -6 18 1.5
    endloop
  endfacet
  facet normal 1 -0 0
    outer loop
      vertex 6 18 1.5
      vertex 6 22 -1.5
      vertex 6 22 1.5
    endloop
  endfacet
  facet normal 1 0 0
    outer loop
      vertex 6 22 -1.5
      vertex 6 18 1.5
      vertex 6 18 -1.5
    endloop
  endfacet
  facet normal 0 0 -1
    outer loop
      vertex -6 18 -1.5
      vertex 6 22 -1.5
      vertex 6 18 -1.5
    endloop
  endfacet
  facet normal -0 0 -1
    outer loop
      vertex 6 22 -1.5
      vertex -6 18 -1.5
      vertex -6 22 -1.5
    endloop
  endfacet
  facet normal 0 -1 0
    outer loop
      vertex -6 18 1.5
      vertex -4.5 18 0.5
      vertex 6 18 1.5
    endloop
  endfacet
  facet normal 0 -1 0
    outer loop
      vertex -6 18 -1.5
      vertex -4.5 18 0.5
      vertex -6 18 1.5
    endloop
  endfacet
  facet normal 0 -1 -0
    outer loop
      vertex -4.5 18 -1.3
      vertex -6 18 -1.5
      vertex 4.5 18 -1.3
    endloop
  endfacet
  facet normal 0 -1 -0
    outer loop
      vertex -4.5 18 0.5
      vertex -6 18 -1.5
      vertex -4.5 18 -1.3
    endloop
  endfacet
  facet normal 0 -1 0
    outer loop
      vertex 4.5 18 0.5
      vertex 6 18 1.5
      vertex -4.5 18 0.5
    endloop
  endfacet
  facet normal 0 -1 0
    outer loop
      vertex 6 18 -1.5
      vertex 4.5 18 0.5
      vertex 4.5 18 -1.3
    endloop
  endfacet
  facet normal 0 -1 0
    outer loop
      vertex 4.5 18 0.5
      vertex 6 18 -1.5
      vertex 6 18 1.5
    endloop
  endfacet
  facet normal 0 -1 0
    outer loop
      vertex 6 18 -1.5
      vertex 4.5 18 -1.3
      vertex -6 18 -1.5
    endloop
  endfacet
  facet normal 0 1 0
    outer loop
      vertex 6 22 1.5
      vertex 4.5 22 0.5
      vertex -6 22 1.5
    endloop
  endfacet
  facet normal 0 1 -0
    outer loop
      vertex 6 22 -1.5
      vertex 4.5 22 0.5
      vertex 6 22 1.5
    endloop
  endfacet
  facet normal 0 1 0
    outer loop
      vertex 4.5 22 -1.3
      vertex 6 22 -1.5
      vertex -4.5 22 -1.3
    endloop
  endfacet
  facet normal 0 1 0
    outer loop
      vertex 4.5 22 0.5
      vertex 6 22 -1.5
      vertex 4.5 22 -1.3
    endloop
  endfacet
  facet normal 0 1 -0
    outer loop
      vertex -4.5 22 0.5
      vertex -6 22 1.5
      vertex 4.5 22 0.5
    endloop
  endfacet
  facet normal 0 1 0
    outer loop
      vertex -6 22 -1.5
      vertex -4.5 22 0.5
      vertex -4.5 22 -1.3
    endloop
  endfacet
  facet normal 0 1 0
    outer loop
      vertex -4.5 22 0.5
      vertex -6 22 -1.5
      vertex -6 22 1.5
    endloop
  endfacet
  facet normal 0 1 0
    outer loop
      vertex -6 22 -1.5
      vertex -4.5 22 -1.3
      vertex 6 22 -1.5
    endloop
  endfacet
  facet normal 1 -0 0
    outer loop
      vertex -4.5 18 0.5
      vertex -4.5 22 -1.3
      vertex -4.5 22 0.5
    endloop
  endfacet
  facet normal 1 0 0
    outer loop
      vertex -4.5 22 -1.3
      vertex -4.5 18 0.5
      vertex -4.5 18 -1.3
    endloop
  endfacet
  facet normal 0 0 -1
    outer loop
      vertex -4.5 18 0.5
      vertex 4.5 22 0.5
      vertex 4.5 18 0.5
    endloop
  endfacet
  facet normal -0 0 -1
    outer loop
      vertex 4.5 22 0.5
      vertex -4.5 18 0.5
      vertex -4.5 22 0.5
    endloop
  endfacet
  facet normal -1 0 0
    outer loop
      vertex 4.5 18 -1.3
      vertex 4.5 22 0.5
      vertex 4.5 22 -1.3
    endloop
  endfacet
  facet normal -1 -0 0
    outer loop
      vertex 4.5 22 0.5
      vertex 4.5 18 -1.3
      vertex 4.5 18 0.5
    endloop
  endfacet
  facet normal -0 0 1
    outer loop
      vertex -4.5 22 -1.3
      vertex 4.5 18 -1.3
      vertex 4.5 22 -1.3
    endloop
  endfacet
  facet normal 0 0 1
    outer loop
      vertex 4.5 18 -1.3
      vertex -4.5 22 -1.3
      vertex -4.5 18 -1.3
    endloop
  endfacet
  facet normal -1 0 0
    outer loop
      vertex -7 23 -1.5
      vertex -7 27 1.5
      vertex -7 27 -1.5
    endloop
  endfacet
  facet normal -1 -0 0
    outer loop
      vertex -7 27 1.5
      vertex -7 23 -1.5
      vertex -7 23 1.5
    endloop
  endfacet
  facet normal -0 0 1
    outer loop
      vertex -7 27 1.5
      vertex 7 23 1.5
      vertex 7 27 1.5
    endloop
  endfacet
  facet normal 0 0 1
    outer loop
      vertex 7 23 1.5
      vertex -7 27 1.5
      vertex -7 23 1.5
    endloop
  endfacet
  facet normal 1 -0 0
    outer loop
      vertex 7 23 1.5
      vertex 7 27 -1.5
      vertex 7 27 1.5
    endloop
  endfacet
  facet normal 1 0 0
    outer loop
      vertex 7 27 -1.5
      vertex 7 23 1.5
      vertex 7 23 -1.5
    endloop
  endfacet
  facet normal 0 0 -1
    outer loop
      vertex -7 23 -1.5
      vertex 7 27 -1.5
      vertex 7 23 -1.5
    endloop
  endfacet
  facet normal -0 0 -1
    outer loop
      vertex 7 27 -1.5
      vertex -7 23 -1.5
      vertex -7 27 -1.5
    endloop
  endfacet
  facet normal 0 -1 0
    outer loop
      vertex -7 23 1.5
      vertex -5.5 23 0.5
      vertex 7 23 1.5
    endloop
  endfacet
  facet normal 0 -1 0
    outer loop
      vertex -7 23 -1.5
      vertex -5.5 23 0.5
      vertex -7 23 1.5
    endloop
  endfacet
  facet normal 0 -1 -0
    outer loop
      vertex -5.5 23 -1.3
      vertex -7 23 -1.5
      vertex 5.5 23 -1.3
    endloop
  endfacet
  facet normal 0 -1 -0
    outer loop
      vertex -5.5 23 0.5
      vertex -7 23 -1.5
      vertex -5.5 23 -1.3
    endloop
  endfacet
  facet normal 0 -1 0
    outer loop
      vertex 5.5 23 0.5
      vertex 7 23 1.5
      vertex -5.5 23 0.5
    endloop
  endfacet
  facet normal 0 -1 0
    outer loop
      vertex 7 23 -1.5
      vertex 5.5 23 0.5
      vertex 5.5 23 -1.3
    endloop
  endfacet
  facet normal 0 -1 0
    outer loop
      vertex 5.5 23 0.5
      vertex 7 23 -1.5
      vertex 7 23 1.5
    endloop
  endfacet
  facet normal 0 -1 0
    outer loop
      vertex 7 23 -1.5
      vertex 5.5 23 -1.3
      vertex -7 23 -1.5
    endloop
  endfacet
  facet normal 0 1 0
    outer loop
      vertex 7 27 1.5
      vertex 5.5 27 0.5
      vertex -7 27 1.5
    endloop
  endfacet
  facet normal 0 1 -0
    outer loop
      vertex 7 27 -1.5
      vertex 5.5 27 0.5
      vertex 7 27 1.5
    endloop
  endfacet
  facet normal 0 1 0
    outer loop
      vertex 5.5 27 -1.3
      vertex 7 27 -1.5
      vertex -5.5 27 -1.3
    endloop
  endfacet
  facet normal 0 1 0
    outer loop
      vertex 5.5 27 0.5
      vertex 7 27 -1.5
      vertex 5.5 27 -1.3
    endloop
  endfacet
  facet normal 0 1 -0
    outer loop
      vertex -5.5 27 0.5
      vertex -7 27 1.5
      vertex 5.5 27 0.5
    endloop
  endfacet
  facet normal 0 1 0
    outer loop
      vertex -7 27 -1.5
      vertex -5.5 27 0.5
      vertex -5.5 27 -1.3
    endloop
  endfacet
  facet normal 0 1 0
    outer loop
      vertex -5.5 27 0.5
      vertex -7 27 -1.5
      vertex -7 27 1.5
    endloop
  endfacet
  facet normal 0 1 0
    outer loop
      vertex -7 27 -1.5
      vertex -5.5 27 -1.3
      vertex 7 27 -1.5
    endloop
  endfacet
  facet normal 1 -0 0
    outer loop
      vertex -5.5 23 0.5
      vertex -5.5 27 -1.3
      vertex -5.5 27 0.5
    endloop
  endfacet
  facet normal 1 0 0
    outer loop
      vertex -5.5 27 -1.3
      vertex -5.5 23 0.5
      vertex -5.5 23 -1.3
    endloop
  endfacet
  facet normal 0 0 -1
    outer loop
      vertex -5.5 23 0.5
      vertex 5.5 27 0.5
      vertex 5.5 23 0.5
    endloop
  endfacet
  facet normal -0 0 -1
    outer loop
      vertex 5.5 27 0.5
      vertex -5.5 23 0.5
      vertex -5.5 27 0.5
    endloop
  endfacet
  facet normal -1 0 0
    outer loop
      vertex 5.5 23 -1.3
      vertex 5.5 27 0.5
      vertex 5.5 27 -1.3
    endloop
  endfacet
  facet normal -1 -0 0
    outer loop
      vertex 5.5 27 0.5
      vertex 5.5 23 -1.3
      vertex 5.5 23 0.5
    endloop
  endfacet
  facet normal -0 0 1
    outer loop
      vertex -5.5 27 -1.3
      vertex 5.5 23 -1.3
      vertex 5.5 27 -1.3
    endloop
  endfacet
  facet normal 0 0 1
    outer loop
      vertex 5.5 23 -1.3
      vertex -5.5 27 -1.3
      vertex -5.5 23 -1.3
    endloop
  endfacet
  facet normal -1 0 0
    outer loop
      vertex -8 28 -1.5
      vertex -8 32 1.5
      vertex -8 32 -1.5
    endloop
  endfacet
  facet normal -1 -0 0
    outer loop
      vertex -8 32 1.5
      vertex -8 28 -1.5
      vertex -8 28 1.5
    endloop
  endfacet
  facet normal -0 0 1
    outer loop
      vertex -8 32 1.5
      vertex 8 28 1.5
      vertex 8 32 1.5
    endloop
  endfacet
  facet normal 0 0 1
    outer loop
      vertex 8 28 1.5
      vertex -8 32 1.5
      vertex -8 28 1.5
    endloop
  endfacet
  facet normal 1 -0 0
    outer loop
      vertex 8 28 1.5
      vertex 8 32 -1.5
      vertex 8 32 1.5
    endloop
  endfacet
  facet normal 1 0 0
    outer loop
      vertex 8 32 -1.5
      vertex 8 28 1.5
      vertex 8 28 -1.5
    endloop
  endfacet
  facet normal 0 1 0
    outer loop
      vertex 8 32 1.5
      vertex 6.5 32 0.5
      vertex -8 32 1.5
    endloop
  endfacet
  facet normal 0 1 -0
    outer loop
      vertex 8 32 -1.5
      vertex 6.5 32 0.5
      vertex 8 32 1.5
    endloop
  endfacet
  facet normal 0 1 0
    outer loop
      vertex 6.5 32 -1.3
      vertex 8 32 -1.5
      vertex -6.5 32 -1.3
    endloop
  endfacet
  facet normal 0 1 0
    outer loop
      vertex 6.5 32 0.5
      vertex 8 32 -1.5
      vertex 6.5 32 -1.3
    endloop
  endfacet
  facet normal 0 1 -0
    outer loop
      vertex -6.5 32 0.5
      vertex -8 32 1.5
      vertex 6.5 32 0.5
    endloop
  endfacet
  facet normal 0 1 0
    outer loop
      vertex -8 32 -1.5
      vertex -6.5 32 0.5
      vertex -6.5 32 -1.3
    endloop
  endfacet
  facet normal 0 1 0
    outer loop
      vertex -6.5 32 0.5
      vertex -8 32 -1.5
      vertex -8 32 1.5
    endloop
  endfacet
  facet normal 0 1 0
    outer loop
      vertex -8 32 -1.5
      vertex -6.5 32 -1.3
      vertex 8 32 -1.5
    endloop
  endfacet
  facet normal 0 0 -1
    outer loop
      vertex -8 28 -1.5
      vertex 8 32 -1.5
      vertex 8 28 -1.5
    endloop
  endfacet
  facet normal -0 0 -1
    outer loop
      vertex 8 32 -1.5
      vertex -8 28 -1.5
      vertex -8 32 -1.5
    endloop
  endfacet
  facet normal 0 -1 0
    outer loop
      vertex -8 28 1.5
      vertex -6.5 28 0.5
      vertex 8 28 1.5
    endloop
  endfacet
  facet normal 0 -1 0
    outer loop
      vertex -8 28 -1.5
      vertex -6.5 28 0.5
      vertex -8 28 1.5
    endloop
  endfacet
  facet normal 0 -1 -0
    outer loop
      vertex -6.5 28 -1.3
      vertex -8 28 -1.5
      vertex 6.5 28 -1.3
    endloop
  endfacet
  facet normal 0 -1 -0
    outer loop
      vertex -6.5 28 0.5
      vertex -8 28 -1.5
      vertex -6.5 28 -1.3
    endloop
  endfacet
  facet normal 0 -1 0
    outer loop
      vertex 6.5 28 0.5
      vertex 8 28 1.5
      vertex -6.5 28 0.5
    endloop
  endfacet
  facet normal 0 -1 0
    outer loop
      vertex 8 28 -1.5
      vertex 6.5 28 0.5
      vertex 6.5 28 -1.3
    endloop
  endfacet
  facet normal 0 -1 0
    outer loop
      vertex 6.5 28 0.5
      vertex 8 28 -1.5
      vertex 8 28 1.5
    endloop
  endfacet
  facet normal 0 -1 0
    outer loop
      vertex 8 28 -1.5
      vertex 6.5 28 -1.3
      vertex -8 28 -1.5
    endloop
  endfacet
  facet normal 1 -0 0
    outer loop
      vertex -6.5 28 0.5
      vertex -6.5 32 -1.3
      vertex -6.5 32 0.5
    endloop
  endfacet
  facet normal 1 0 0
    outer loop
      vertex -6.5 32 -1.3
      vertex -6.5 28 0.5
      vertex -6.5 28 -1.3
    endloop
  endfacet
  facet normal 0 0 -1
    outer loop
      vertex -6.5 28 0.5
      vertex 6.5 32 0.5
      vertex 6.5 28 0.5
    endloop
  endfacet
  facet normal -0 0 -1
    outer loop
      vertex 6.5 32 0.5
      vertex -6.5 28 0.5
      vertex -6.5 32 0.5
    endloop
  endfacet
  facet normal -1 0 0
    outer loop
      vertex 6.5 28 -1.3
      vertex 6.5 32 0.5
      vertex 6.5 32 -1.3
    endloop
  endfacet
  facet normal -1 -0 0
    outer loop
      vertex 6.5 32 0.5
      vertex 6.5 28 -1.3
      vertex 6.5 28 0.5
    endloop
  endfacet
  facet normal -0 0 1
    outer loop
      vertex -6.5 32 -1.3
      vertex 6.5 28 -1.3
      vertex 6.5 32 -1.3
    endloop
  endfacet
  facet normal 0 0 1
    outer loop
      vertex 6.5 28 -1.3
      vertex -6.5 32 -1.3
      vertex -6.5 28 -1.3
    endloop
  endfacet
endsolid OpenSCAD_Model
